Coordinates
version=1
nRows=20
nColumns=33
inDegrees=yes

Units are S.I. units (second, meters, Newtons, ...)
Angles are in degrees.

endheader
time	ground_thorax_rot_x	ground_thorax_rot_y	ground_thorax_rot_z	ground_thorax_tx	ground_thorax_ty	ground_thorax_tz	clav_prot_r	clav_elev_r	scapula_abduction_r	scapula_elevation_r	scapula_upward_rot_r	scapula_winging_r	shoulder_elv_r	plane_of_elev_r	axial_rot_r	elbow_flexion_r	pro_sup_r	wrist_flex_r	wrist_dev_r	clav_prot_l	clav_elev_l	scapula_abduction_l	scapula_elevation_l	scapula_upward_rot_l	scapula_winging_l	shoulder_elv_l	plane_of_elev_l	axial_rot_l	elbow_flexion_l	pro_sup_l	wrist_flex_l	wrist_dev_l	
5.2800	28.529067	31.467466	42.861340	-133.899613	792.196086	4.469594	12.969217	38.045942	35.751620	45.000000	-39.110278	2432.991990	-1016.726764	32.050864	55.531500	1090.751077	6.345518	17.106615	11.492360	8.164075	-45.000000	-36.488973	45.000000	-45.000000	-2063.323024	263.072496	140.483800	143.065109	730.911280	20.763810	7.670681	-19.484686	
5.2900	27.939496	31.953290	43.903131	-129.311572	790.674081	4.438583	12.964095	37.944831	35.534454	45.000000	-39.460960	2433.285699	-1016.892415	31.933429	55.806454	1090.718223	8.031705	16.988069	11.586208	8.177711	-45.000000	-36.482402	45.000000	-45.000000	-2063.363309	262.715515	140.772062	142.032489	730.828485	21.418020	7.790634	-19.444493	
5.3000	27.361233	32.402378	44.934575	-124.782239	789.172967	4.428111	12.980187	37.846560	35.339965	45.000000	-39.839962	2433.567903	-1017.057260	31.815903	56.080646	1090.670239	9.740217	16.914384	11.650524	8.171470	-45.000000	-36.453780	45.000000	-45.000000	-2063.394791	262.357386	141.068536	140.981203	730.741499	22.093877	7.894442	-19.409162	
5.3100	26.788489	32.815399	45.951325	-120.315841	787.705874	4.432818	13.017294	37.753929	35.158086	45.000000	-40.239752	2433.832532	-1017.230611	31.704896	56.384013	1090.597791	11.374244	16.871196	11.690621	8.143675	-45.000000	-36.409003	45.000000	-45.000000	-2063.428277	262.005019	141.370319	139.922334	730.645937	22.792920	7.980792	-19.379209	
5.3200	26.252157	33.173644	46.922158	-115.913525	786.287339	4.446423	13.080488	37.683847	35.015546	45.000000	-40.643886	2434.049984	-1017.432286	31.629406	56.730580	1090.504519	12.902636	16.851241	11.704641	8.095218	-45.000000	-36.327677	45.000000	-45.000000	-2063.465197	261.652070	141.675374	138.866223	730.548047	23.516109	8.034795	-19.356106	
5.3300	25.703227	33.512853	47.894890	-111.575204	784.932988	4.462581	13.138841	37.606914	34.859833	45.000000	-41.056312	2434.263017	-1017.633661	31.559151	57.118765	1090.387335	14.295069	16.837472	11.702552	8.053146	-45.000000	-36.246375	45.000000	-45.000000	-2063.495154	261.311433	141.982876	137.796350	730.444295	24.257025	8.073325	-19.338289	
5.3400	25.160404	33.819361	48.852098	-107.305240	783.657090	4.476938	13.195330	37.534480	34.719994	45.000000	-41.463146	2434.462116	-1017.842367	31.490496	57.545416	1090.260700	15.561004	16.828412	11.684400	8.013311	-45.000000	-36.149020	45.000000	-45.000000	-2063.517163	260.982914	142.292858	136.722736	730.342173	25.005854	8.087644	-19.325524	
5.3500	24.584228	34.127571	49.834075	-103.111279	782.473135	4.486655	13.212986	37.443232	34.547737	45.000000	-41.860496	2434.690723	-1018.029514	31.389953	58.004311	1090.116614	16.685944	16.813023	11.659618	8.002080	-45.000000	-36.072958	45.000000	-45.000000	-2063.519589	260.668377	142.602161	135.628906	730.230474	25.750454	8.096951	-19.313973	
5.3600	24.002945	34.424745	50.811352	-99.002785	781.393808	4.489932	13.213852	37.349127	34.365502	45.000000	-42.238675	2434.925669	-1018.205849	31.275951	58.491170	1089.968600	17.686193	16.794234	11.624084	8.004395	-45.000000	-36.002701	45.000000	-45.000000	-2063.516112	260.365596	142.919092	134.533819	730.113702	26.477996	8.094741	-19.303072	
5.3700	23.416149	34.721803	51.779421	-94.991238	780.430922	4.485695	13.197634	37.252004	34.162724	45.000000	-42.594019	2435.167852	-1018.363102	31.150890	58.997828	1089.811042	18.586992	16.769293	11.577636	8.015092	-45.000000	-35.951965	45.000000	-45.000000	-2063.519843	260.073070	143.245533	133.447428	729.986985	27.181187	8.088382	-19.291463	
5.3800	22.856715	34.993881	52.697718	-91.089772	779.594710	4.473496	13.174756	37.168019	33.974957	45.000000	-42.915029	2435.391430	-1018.519008	31.031808	59.506968	1089.662113	19.434788	16.745605	11.514709	8.025068	-45.000000	-35.901207	45.000000	-45.000000	-2063.535774	259.790863	143.571000	132.397135	729.851984	27.856285	8.071322	-19.278783	
5.3900	22.323773	35.245886	53.562660	-87.313598	778.893028	4.453507	13.135254	37.095400	33.794477	45.000000	-43.194111	2435.603399	-1018.670062	30.918699	59.997180	1089.517994	20.263741	16.723139	11.435326	8.038134	-45.000000	-35.859509	45.000000	-45.000000	-2063.560360	259.513876	143.884146	131.397460	729.703497	28.501492	8.050139	-19.263611	
5.4000	21.810951	35.476278	54.380131	-83.679144	778.330249	4.426589	13.089098	37.027199	33.616193	45.000000	-43.437594	2435.811797	-1018.813653	30.811079	60.441700	1089.392097	21.090876	16.704969	11.339020	8.054362	-45.000000	-35.827342	45.000000	-45.000000	-2063.589855	259.254928	144.183965	130.471273	729.546440	29.108744	8.029144	-19.245161	
5.4100	21.310550	35.691923	55.156567	-80.204133	777.906611	4.394194	13.034125	36.958860	33.428093	45.000000	-43.648799	2436.025500	-1018.939865	30.711427	60.818186	1089.278975	21.924274	16.689753	11.228340	8.075375	-45.000000	-35.808779	45.000000	-45.000000	-2063.627603	259.014821	144.469898	129.635766	729.382291	29.670387	8.010768	-19.222380	
5.4200	20.835014	35.889274	55.880651	-76.905577	777.617616	4.358271	12.985895	36.892913	33.244171	45.000000	-43.837747	2436.234547	-1019.053940	30.626090	61.103789	1089.184386	22.764699	16.679110	11.107691	8.094111	-45.000000	-35.790116	45.000000	-45.000000	-2063.672522	258.798247	144.733462	128.909569	729.218421	30.178511	7.994804	-19.195062	
5.4300	20.404345	36.066549	56.533968	-73.799580	777.454173	4.321021	12.942057	36.835633	33.078949	45.000000	-44.002875	2436.427805	-1019.158107	30.566139	61.287639	1089.101869	23.614718	16.671763	10.982871	8.106926	-45.000000	-35.763447	45.000000	-45.000000	-2063.720938	258.594947	144.963404	128.304414	729.053873	30.631799	7.982063	-19.162992	
5.4400	20.029805	36.216584	57.108091	-70.899458	777.403146	4.284781	12.918840	36.786977	32.948774	45.000000	-44.155398	2436.598555	-1019.258842	30.534615	61.353324	1089.037896	24.464929	16.669042	10.858312	8.104577	-45.000000	-35.723151	45.000000	-45.000000	-2063.766538	258.405048	145.154065	127.835281	728.893238	31.028257	7.974367	-19.126938	
5.4500	19.703442	36.347146	57.609903	-68.215611	777.448630	4.251826	12.911448	36.743640	32.837064	45.000000	-44.293269	2436.751464	-1019.348157	30.533672	61.297875	1088.988236	25.299446	16.669100	10.737875	8.088310	-45.000000	-35.678296	45.000000	-45.000000	-2063.813592	258.224457	145.310999	127.506434	728.735141	31.368143	7.973551	-19.087272	
5.4600	19.414917	36.461102	58.047978	-65.753828	777.573278	4.224334	12.921927	36.704957	32.736467	45.000000	-44.417283	2436.887825	-1019.428553	30.553674	61.125595	1088.958080	26.090788	16.672301	10.625401	8.059571	-45.000000	-35.634637	45.000000	-45.000000	-2063.863543	258.055228	145.436578	127.321086	728.585184	31.648744	7.977849	-19.044450	
5.4700	19.151943	36.566494	58.433119	-63.515194	777.759895	4.204255	12.936338	36.669382	32.616900	45.000000	-44.507456	2437.015896	-1019.492076	30.596495	60.860750	1088.937630	26.811500	16.674719	10.524422	8.028646	-45.000000	-35.603277	45.000000	-45.000000	-2063.922276	257.893326	145.538777	127.268157	728.438725	31.869874	7.988848	-18.998787	
